<svg xmlns="http://www.w3.org/2000/svg"><defs><clipPath id="clip0_101_51"><path fill="#fff" transform="translate(.25)" d="M0 0h25v25H0z"/></clipPath><clipPath id="clip0_101_53"><path fill="#fff" transform="translate(.25)" d="M0 0h23.75v25H0z"/></clipPath><clipPath id="clip0_101_57"><path fill="#fff" d="M0 0h25v25H0z"/></clipPath></defs><symbol id="icon-arr-down" viewBox="0 0 60 60"><path stroke="#fff" stroke-width="2" d="M1 1h58v58H1z"/><path d="M30 24v12m0 0l6-6m-6 6l-6-6" stroke="#fff" stroke-width="2" stroke-linecap="round" stroke-linejoin="round"/></symbol><symbol id="icon-arr-top" viewBox="0 0 60 60"><path opacity=".7" fill-rule="evenodd" clip-rule="evenodd" d="M0 60h60V0H0v60zm29-24a1 1 0 102 0v-9.586l4.293 4.293a1 1 0 001.414-1.414l-6-6a1 1 0 00-1.414 0l-6 6a1 1 0 001.414 1.414L29 26.414V36z" fill="#fff"/></symbol><symbol id="icon-arr-tr" viewBox="0 0 60 60"><path opacity=".7" fill-rule="evenodd" clip-rule="evenodd" d="M0 60h60V0H0v60zm29-24a1 1 0 102 0v-9.586l4.293 4.293a1 1 0 001.414-1.414l-6-6a1 1 0 00-1.414 0l-6 6a1 1 0 001.414 1.414L29 26.414V36z" fill="#fff"/></symbol><symbol id="icon-arr" viewBox="0 0 14 14"><path d="M7 1v12m0 0l6-6m-6 6L1 7" stroke="#fff" stroke-width="2" stroke-linecap="round" stroke-linejoin="round"/></symbol><symbol id="icon-burger" viewBox="0 0 22 19"><path d="M20.62 0H1.38C.615 0 0 .614 0 1.38c0 .768.614 1.381 1.38 1.381h19.24c.766 0 1.38-.613 1.38-1.38C22 .614 21.386 0 20.62 0zM1.38 10.432h10.034c.767 0 1.38-.613 1.38-1.38 0-.767-.613-1.381-1.38-1.381H1.381A1.374 1.374 0 000 9.05c0 .768.614 1.381 1.38 1.381zm16.17 5.216H1.38c-.766 0-1.38.614-1.38 1.381s.614 1.38 1.38 1.38h16.17c.768 0 1.382-.613 1.382-1.38 0-.767-.614-1.38-1.381-1.38z" fill="#fff"/></symbol><symbol id="icon-fb" viewBox="0 0 26 25"><g clip-path="url(#clip0_101_51)"><path d="M16.914 4.151h2.282V.176C18.802.122 17.448 0 15.871 0c-3.29 0-5.545 2.07-5.545 5.874v3.501H6.695v4.444h3.631V25h4.452V13.82h3.485l.553-4.444h-4.039V6.315c.001-1.285.347-2.164 2.137-2.164z" fill="#fff"/></g></symbol><symbol id="icon-insta" viewBox="0 0 24 25"><g clip-path="url(#clip0_101_53)" fill="#fff"><path d="M23.978 7.35c-.056-1.328-.26-2.242-.552-3.033A6.142 6.142 0 0022.052 2.1 5.826 5.826 0 0019.95.66c-.756-.308-1.619-.523-2.88-.582C15.797.015 15.393 0 12.17 0 8.945 0 8.542.015 7.275.073c-1.262.059-2.13.274-2.88.581A5.776 5.776 0 002.287 2.1a6.196 6.196 0 00-1.37 2.212C.628 5.108.424 6.017.368 7.345.307 8.683.293 9.108.293 12.502c0 3.395.014 3.82.07 5.153.055 1.328.26 2.241.551 3.033.302.84.77 1.592 1.374 2.217a5.824 5.824 0 002.101 1.44c.757.308 1.62.523 2.882.582 1.266.058 1.67.073 4.894.073 3.225 0 3.629-.015 4.895-.073 1.262-.059 2.13-.274 2.881-.581 1.596-.65 2.858-1.978 3.475-3.658.293-.796.497-1.705.552-3.033.056-1.334.07-1.758.07-5.153 0-3.394-.005-3.819-.06-5.152zm-2.14 10.207c-.05 1.221-.245 1.88-.408 2.32-.398 1.089-1.22 1.953-2.254 2.373-.418.171-1.049.377-2.204.43-1.253.059-1.629.073-4.797.073-3.17 0-3.55-.014-4.798-.073-1.16-.053-1.786-.259-2.204-.43a3.642 3.642 0 01-1.364-.932 3.914 3.914 0 01-.886-1.436c-.162-.44-.357-1.104-.408-2.32-.056-1.319-.07-1.714-.07-5.05 0-3.335.014-3.736.07-5.05.051-1.22.246-1.88.408-2.32.19-.542.492-1.035.891-1.435a3.674 3.674 0 011.364-.933c.418-.17 1.049-.376 2.204-.43 1.253-.058 1.628-.073 4.797-.073 3.174 0 3.55.015 4.798.073 1.16.054 1.786.26 2.203.43.515.2.984.518 1.364.933.395.405.696.893.886 1.436.163.44.358 1.103.409 2.32.056 1.318.07 1.714.07 5.05 0 3.335-.014 3.725-.07 5.044z"/><path d="M12.17 6.08c-3.37 0-6.102 2.877-6.102 6.422 0 3.546 2.733 6.422 6.101 6.422 3.369 0 6.101-2.876 6.101-6.422 0-3.545-2.732-6.422-6.1-6.422zm0 10.588c-2.186 0-3.958-1.865-3.958-4.166 0-2.3 1.772-4.166 3.957-4.166 2.185 0 3.958 1.866 3.958 4.166 0 2.3-1.772 4.166-3.958 4.166zm7.766-10.842c0 .828-.638 1.5-1.425 1.5-.786 0-1.424-.672-1.424-1.5s.638-1.499 1.424-1.499c.787 0 1.425.671 1.425 1.5z"/></g></symbol><symbol id="icon-logo" viewBox="0 0 183 45"><path fill-rule="evenodd" clip-rule="evenodd" d="M5.627 0h33.76a5.631 5.631 0 015.626 5.625v33.75A5.631 5.631 0 0139.386 45h-8.51v-3.147c0-2.873-1.187-5.65-3.253-7.61l-.026-.027-.255-.229a3.305 3.305 0 01-1.363-2.505V20.11a.882.882 0 00-.88-.879h-5.116a.882.882 0 00-.879.88v11.364a3.238 3.238 0 01-1.345 2.443.907.907 0 00-.105.088l-.247.246a10.552 10.552 0 00-3.2 7.647V45h-8.58A5.631 5.631 0 010 39.375V5.625A5.631 5.631 0 015.627 0zm18.638 14.898a2.922 2.922 0 00-3.359.043.938.938 0 01-.51.176.884.884 0 01-.51-1.6 4.682 4.682 0 015.372-.07.884.884 0 01.229 1.222.884.884 0 01-1.222.229zm2.593-3.384a7.5 7.5 0 00-8.59.123.879.879 0 01-1.222-.193.874.874 0 01.194-1.231 9.26 9.26 0 0110.612-.15.884.884 0 01.228 1.222.884.884 0 01-1.222.229zM16.203 7.717l-.65.474a.953.953 0 01-.537.176.879.879 0 01-.519-1.59l.73-.528a13.913 13.913 0 017.394-2.127h.061c2.629 0 5.196.747 7.412 2.162l.035.027.351.246a.876.876 0 11-1.01 1.433l-.334-.238a12.024 12.024 0 00-6.444-1.872h-.053a12.16 12.16 0 00-6.435 1.837z" fill="#fff"/><path d="M15.966 45h13.143v-3.147c0-2.39-.985-4.693-2.69-6.328l-.22-.193a5.03 5.03 0 01-1.987-3.797V20.988h-3.358v10.565a5.011 5.011 0 01-2.014 3.753l-.21.21a8.769 8.769 0 00-2.664 6.382V45zm50.529-20.857l-3.78-12.312h-.096c.136 2.505.204 4.176.204 5.013v7.299H59.85V8.45h4.531l3.715 12h.064l3.94-12h4.532v15.693h-3.103v-7.428c0-.35.003-.755.01-1.213.015-.458.065-1.674.15-3.65h-.096l-4.048 12.29h-3.049zm16.449-6.022c0 1.188.193 2.086.58 2.694.394.609 1.03.913 1.911.913.873 0 1.5-.3 1.879-.902.386-.608.58-1.51.58-2.705 0-1.188-.194-2.079-.58-2.673-.387-.594-1.02-.89-1.9-.89-.874 0-1.504.296-1.89.89-.387.587-.58 1.478-.58 2.673zm8.3 0c0 1.954-.516 3.482-1.546 4.584-1.031 1.102-2.466 1.653-4.306 1.653-1.152 0-2.169-.25-3.05-.752-.88-.508-1.556-1.234-2.028-2.179-.473-.944-.71-2.046-.71-3.306 0-1.96.513-3.485 1.536-4.572 1.024-1.088 2.463-1.632 4.316-1.632 1.153 0 2.17.25 3.05.751a5.014 5.014 0 012.029 2.158c.472.937.709 2.036.709 3.295zm11.08 2.459c0 1.23-.429 2.168-1.288 2.812-.852.643-2.13.966-3.833.966-.874 0-1.618-.061-2.234-.183a8.223 8.223 0 01-1.728-.515v-2.705c.608.286 1.292.526 2.05.72.766.192 1.44.289 2.019.289 1.188 0 1.782-.344 1.782-1.03 0-.258-.079-.466-.236-.623-.157-.165-.43-.347-.816-.548a19.034 19.034 0 00-1.546-.719c-.923-.386-1.603-.744-2.04-1.073-.43-.33-.744-.705-.945-1.127-.193-.43-.29-.956-.29-1.578 0-1.066.412-1.89 1.235-2.469.83-.587 2.004-.88 3.522-.88a9.98 9.98 0 014.219.945l-.988 2.361a18.173 18.173 0 00-1.685-.633 5.294 5.294 0 00-1.6-.247c-.966 0-1.45.261-1.45.783 0 .294.154.548.462.763.315.214.999.533 2.05.955.939.38 1.626.733 2.062 1.063.437.329.759.708.967 1.137.207.43.311.941.311 1.535zm7.43 3.778c-3.736 0-5.605-2.05-5.605-6.151 0-2.04.509-3.596 1.525-4.67 1.016-1.08 2.473-1.62 4.37-1.62 1.389 0 2.634.272 3.736.816l-.966 2.533a15.213 15.213 0 00-1.439-.505 4.52 4.52 0 00-1.331-.204c-1.704 0-2.556 1.21-2.556 3.629 0 2.347.852 3.52 2.556 3.52.63 0 1.213-.082 1.75-.247a6.467 6.467 0 001.611-.794v2.802a5.275 5.275 0 01-1.611.697c-.537.13-1.217.194-2.04.194zm9.051-6.237c0 1.188.193 2.086.58 2.694.394.609 1.031.913 1.911.913.873 0 1.5-.3 1.879-.902.387-.608.58-1.51.58-2.705 0-1.188-.193-2.079-.58-2.673-.386-.594-1.02-.89-1.9-.89-.874 0-1.504.296-1.89.89-.387.587-.58 1.478-.58 2.673zm8.3 0c0 1.954-.516 3.482-1.546 4.584-1.031 1.102-2.466 1.653-4.306 1.653-1.152 0-2.169-.25-3.049-.752-.881-.508-1.557-1.234-2.029-2.179-.473-.944-.709-2.046-.709-3.306 0-1.96.512-3.485 1.535-4.572 1.024-1.088 2.463-1.632 4.317-1.632 1.152 0 2.168.25 3.049.751a5.014 5.014 0 012.029 2.158c.473.937.709 2.036.709 3.295zm18.252 6.022h-3.79l-2.126-8.244a45.967 45.967 0 01-.408-1.814c-.186-.923-.293-1.542-.322-1.857-.043.387-.15 1.01-.322 1.868a42.8 42.8 0 01-.397 1.825l-2.115 8.222h-3.78L128.093 8.45h3.274l2.008 8.566c.351 1.581.605 2.951.762 4.11.043-.407.14-1.037.29-1.889.158-.858.305-1.524.441-1.996l2.286-8.791h3.146l2.287 8.791c.101.394.226.995.376 1.803.15.809.265 1.503.344 2.083.071-.558.186-1.253.343-2.083.158-.837.301-1.513.43-2.028l1.997-8.566h3.275l-3.995 15.693zM150.93 9.04c0-1.066.594-1.599 1.782-1.599 1.188 0 1.783.533 1.783 1.6 0 .507-.151.905-.451 1.19-.294.28-.738.42-1.332.42-1.188 0-1.782-.537-1.782-1.61zm3.414 15.103h-3.275v-12h3.275v12zm14.527 0h-3.275v-7.01c0-.865-.153-1.513-.461-1.942-.308-.437-.798-.655-1.471-.655-.916 0-1.579.308-1.987.923-.408.608-.612 1.621-.612 3.038v5.646h-3.274v-12h2.501l.441 1.534h.182a3.431 3.431 0 011.503-1.31c.645-.3 1.375-.45 2.191-.45 1.395 0 2.455.38 3.178 1.138.723.751 1.084 1.839 1.084 3.263v7.825zm8.343-9.897c-.695 0-1.239.222-1.632.666-.394.436-.619 1.059-.677 1.867h4.596c-.015-.808-.226-1.43-.634-1.867-.408-.444-.959-.666-1.653-.666zm.461 10.112c-1.932 0-3.443-.534-4.531-1.6-1.088-1.066-1.632-2.576-1.632-4.53 0-2.01.502-3.563 1.504-4.658 1.009-1.102 2.401-1.653 4.176-1.653 1.697 0 3.017.483 3.962 1.45.945.965 1.417 2.3 1.417 4.003v1.588h-7.741c.036.93.312 1.657.827 2.18.515.522 1.238.783 2.169.783.723 0 1.406-.075 2.05-.226a10.23 10.23 0 002.019-.719v2.534a7.54 7.54 0 01-1.836.633c-.651.143-1.446.215-2.384.215zM66.836 40.143v-3.479c0-.426-.09-.745-.273-.956-.182-.215-.465-.322-.85-.322-.503 0-.876.145-1.117.434-.24.29-.36.735-.36 1.337v2.986h-.811v-3.479c0-.426-.091-.745-.273-.956-.183-.215-.467-.322-.854-.322-.508 0-.88.153-1.118.458-.234.303-.351.8-.351 1.493v2.806h-.81v-5.348h.658l.132.732h.04c.152-.26.367-.463.643-.61.28-.146.593-.22.937-.22.837 0 1.383.303 1.64.908h.04c.159-.28.39-.5.692-.663a2.151 2.151 0 011.035-.244c.605 0 1.057.156 1.357.468.302.31.454.805.454 1.488v3.489h-.81zm5.774 0l-.161-.761h-.04c-.266.335-.533.562-.8.683-.263.117-.593.175-.99.175-.53 0-.947-.136-1.25-.41-.299-.273-.449-.661-.449-1.166 0-1.08.864-1.645 2.592-1.697l.907-.03v-.331c0-.42-.09-.729-.273-.927-.179-.202-.467-.303-.864-.303-.445 0-.95.137-1.513.41l-.248-.62c.263-.143.551-.255.863-.336.316-.082.632-.122.947-.122.638 0 1.11.141 1.415.424.31.283.464.737.464 1.361v3.65h-.6zm-1.83-.571c.504 0 .9-.138 1.186-.415.29-.276.434-.663.434-1.16v-.484l-.81.034c-.644.023-1.11.124-1.396.303-.283.175-.425.45-.425.824 0 .293.088.516.264.669.179.153.428.229.747.229zm6.544-4.874c.238 0 .451.02.64.058l-.113.752a2.759 2.759 0 00-.585-.073c-.433 0-.804.175-1.113.526-.306.352-.459.79-.459 1.313v2.869h-.81v-5.348h.669l.093.99h.038a2.35 2.35 0 01.718-.804c.28-.189.587-.283.922-.283zm2.44 2.708a9.51 9.51 0 01.64-.78l1.728-1.83h.961l-2.167 2.278 2.318 3.069h-.98l-1.89-2.528-.61.527v2h-.8v-7.59h.8v4.024c0 .18-.013.456-.038.83h.038zm6.711 2.834c-.79 0-1.415-.24-1.874-.722-.456-.481-.683-1.15-.683-2.005 0-.862.211-1.547.634-2.054.426-.507.997-.761 1.713-.761.67 0 1.2.221 1.591.663.39.44.586 1.02.586 1.742v.512h-3.685c.016.628.174 1.105.474 1.43.302.325.727.488 1.273.488a4.31 4.31 0 001.709-.361v.722a4.147 4.147 0 01-.816.264 4.402 4.402 0 01-.922.082zm-.22-4.864c-.429 0-.772.14-1.03.42-.253.28-.403.666-.448 1.16h2.796c0-.51-.114-.9-.341-1.17-.228-.273-.554-.41-.977-.41zm5.301 4.196a2.782 2.782 0 00.732-.098v.62a1.435 1.435 0 01-.39.102 2.66 2.66 0 01-.46.044c-1.034 0-1.552-.544-1.552-1.634v-3.181h-.766v-.39l.766-.337.342-1.142h.469v1.24h1.552v.629h-1.552v3.147c0 .322.076.569.229.741.153.173.363.259.63.259zm4.294.668c-.348 0-.667-.063-.956-.19a1.818 1.818 0 01-.723-.595h-.058c.039.312.058.608.058.888v2.2h-.81v-7.748h.66l.111.732h.04a1.88 1.88 0 01.727-.634c.276-.13.593-.195.951-.195.71 0 1.256.242 1.64.727.387.485.58 1.164.58 2.04 0 .877-.196 1.56-.59 2.048-.39.485-.933.727-1.63.727zm-.117-4.854c-.546 0-.942.151-1.186.454-.244.302-.369.783-.376 1.444v.18c0 .752.126 1.29.376 1.615.25.322.653.483 1.206.483.462 0 .823-.187 1.083-.56.264-.375.395-.89.395-1.547 0-.667-.131-1.178-.395-1.532-.26-.358-.628-.537-1.103-.537zm4.568 4.757h-.81V32.55h.81v7.592zm5.008 0l-.162-.761h-.039c-.266.335-.533.562-.8.683-.264.117-.594.175-.991.175-.53 0-.946-.136-1.249-.41-.299-.273-.449-.661-.449-1.166 0-1.08.864-1.645 2.591-1.697l.908-.03v-.331c0-.42-.091-.729-.273-.927-.179-.202-.467-.303-.864-.303-.446 0-.95.137-1.513.41l-.249-.62a3.83 3.83 0 01.864-.336c.316-.082.631-.122.947-.122.638 0 1.109.141 1.415.424.309.283.464.737.464 1.361v3.65h-.6zm-1.831-.571c.505 0 .9-.138 1.186-.415.29-.276.435-.663.435-1.16v-.484l-.81.034c-.645.023-1.11.124-1.396.303-.283.175-.425.45-.425.824 0 .293.088.516.264.669.179.153.428.229.746.229zm6.242.668c-.774 0-1.374-.237-1.8-.712-.423-.478-.635-1.153-.635-2.025 0-.894.215-1.585.644-2.073.433-.488 1.048-.732 1.845-.732.257 0 .514.027.771.083.257.055.459.12.605.195l-.249.688a3.62 3.62 0 00-.585-.176 2.54 2.54 0 00-.561-.073c-1.087 0-1.63.693-1.63 2.078 0 .658.131 1.162.395 1.513.267.351.66.527 1.181.527a3.6 3.6 0 001.371-.288v.717c-.358.186-.808.278-1.352.278zm4.886 0c-.791 0-1.416-.24-1.874-.722-.456-.481-.684-1.15-.684-2.005 0-.862.212-1.547.635-2.054.426-.507.997-.761 1.713-.761.67 0 1.2.221 1.591.663.39.44.585 1.02.585 1.742v.512h-3.684c.016.628.174 1.105.473 1.43.303.325.727.488 1.274.488.576 0 1.145-.12 1.708-.361v.722a4.14 4.14 0 01-.815.264 4.4 4.4 0 01-.922.082zm-.22-4.864c-.429 0-.773.14-1.03.42-.253.28-.403.666-.449 1.16h2.797c0-.51-.114-.9-.342-1.17-.228-.273-.553-.41-.976-.41z" fill="#fff"/></symbol><symbol id="icon-yandex" viewBox="0 0 25 25"><g clip-path="url(#clip0_101_57)"><path d="M14.875 14.875c-2 2-2.125 4.5-2.25 10.125 5.125 0 8.75 0 10.5-1.75 1.75-1.875 1.75-5.625 1.75-10.5-5.375 0-8 .25-10 2.125zM0 12.625c0 5 0 8.75 1.75 10.5C3.625 25 7.25 25 12.375 25c-.125-5.5-.25-8.125-2.25-10.125C8.125 13 5.5 12.75 0 12.625zM12.375 0c-5.125 0-8.75 0-10.5 1.75C0 3.625 0 7.375 0 12.375c5.5-.125 8.125-.25 10.125-2.25C12 8.125 12.25 5.5 12.375 0zm2.5 10.125c-2-2-2.125-4.5-2.25-10.125 5.125 0 8.75 0 10.5 1.75C25 3.625 25 7.375 25 12.375c-5.5-.125-8.125-.375-10.125-2.25z" fill="#fff"/></g></symbol></svg>