<svg xmlns="http://www.w3.org/2000/svg"><defs><clipPath id="clip0_101_51"><path fill="#fff" transform="translate(.25)" d="M0 0h25v25H0z"/></clipPath><clipPath id="clip0_101_53"><path fill="#fff" transform="translate(.25)" d="M0 0h23.75v25H0z"/></clipPath><clipPath id="clip0_101_57"><path fill="#fff" d="M0 0h25v25H0z"/></clipPath></defs><symbol id="icon-arr-down" viewBox="0 0 60 60"><path stroke="#fff" stroke-width="2" d="M1 1h58v58H1z"/><path d="M30 24v12m0 0l6-6m-6 6l-6-6" stroke="#fff" stroke-width="2" stroke-linecap="round" stroke-linejoin="round"/></symbol><symbol id="icon-arr-top" viewBox="0 0 60 60"><path opacity=".7" fill-rule="evenodd" clip-rule="evenodd" d="M0 60h60V0H0v60zm29-24a1 1 0 102 0v-9.586l4.293 4.293a1 1 0 001.414-1.414l-6-6a1 1 0 00-1.414 0l-6 6a1 1 0 001.414 1.414L29 26.414V36z" fill="#fff"/></symbol><symbol id="icon-fb" viewBox="0 0 26 25"><g clip-path="url(#clip0_101_51)"><path d="M16.914 4.151h2.282V.176C18.802.122 17.448 0 15.871 0c-3.29 0-5.545 2.07-5.545 5.874v3.501H6.695v4.444h3.631V25h4.452V13.82h3.485l.553-4.444h-4.039V6.315c.001-1.285.347-2.164 2.137-2.164z" fill="#fff"/></g></symbol><symbol id="icon-insta" viewBox="0 0 24 25"><g clip-path="url(#clip0_101_53)" fill="#fff"><path d="M23.978 7.35c-.056-1.328-.26-2.242-.552-3.033A6.142 6.142 0 0022.052 2.1 5.826 5.826 0 0019.95.66c-.756-.308-1.619-.523-2.88-.582C15.797.015 15.393 0 12.17 0 8.945 0 8.542.015 7.275.073c-1.262.059-2.13.274-2.88.581A5.776 5.776 0 002.287 2.1a6.196 6.196 0 00-1.37 2.212C.628 5.108.424 6.017.368 7.345.307 8.683.293 9.108.293 12.502c0 3.395.014 3.82.07 5.153.055 1.328.26 2.241.551 3.033.302.84.77 1.592 1.374 2.217a5.824 5.824 0 002.101 1.44c.757.308 1.62.523 2.882.582 1.266.058 1.67.073 4.894.073 3.225 0 3.629-.015 4.895-.073 1.262-.059 2.13-.274 2.881-.581 1.596-.65 2.858-1.978 3.475-3.658.293-.796.497-1.705.552-3.033.056-1.334.07-1.758.07-5.153 0-3.394-.005-3.819-.06-5.152zm-2.14 10.207c-.05 1.221-.245 1.88-.408 2.32-.398 1.089-1.22 1.953-2.254 2.373-.418.171-1.049.377-2.204.43-1.253.059-1.629.073-4.797.073-3.17 0-3.55-.014-4.798-.073-1.16-.053-1.786-.259-2.204-.43a3.642 3.642 0 01-1.364-.932 3.914 3.914 0 01-.886-1.436c-.162-.44-.357-1.104-.408-2.32-.056-1.319-.07-1.714-.07-5.05 0-3.335.014-3.736.07-5.05.051-1.22.246-1.88.408-2.32.19-.542.492-1.035.891-1.435a3.674 3.674 0 011.364-.933c.418-.17 1.049-.376 2.204-.43 1.253-.058 1.628-.073 4.797-.073 3.174 0 3.55.015 4.798.073 1.16.054 1.786.26 2.203.43.515.2.984.518 1.364.933.395.405.696.893.886 1.436.163.44.358 1.103.409 2.32.056 1.318.07 1.714.07 5.05 0 3.335-.014 3.725-.07 5.044z"/><path d="M12.17 6.08c-3.37 0-6.102 2.877-6.102 6.422 0 3.546 2.733 6.422 6.101 6.422 3.369 0 6.101-2.876 6.101-6.422 0-3.545-2.732-6.422-6.1-6.422zm0 10.588c-2.186 0-3.958-1.865-3.958-4.166 0-2.3 1.772-4.166 3.957-4.166 2.185 0 3.958 1.866 3.958 4.166 0 2.3-1.772 4.166-3.958 4.166zm7.766-10.842c0 .828-.638 1.5-1.425 1.5-.786 0-1.424-.672-1.424-1.5s.638-1.499 1.424-1.499c.787 0 1.425.671 1.425 1.5z"/></g></symbol><symbol id="icon-yandex" viewBox="0 0 25 25"><g clip-path="url(#clip0_101_57)"><path d="M14.875 14.875c-2 2-2.125 4.5-2.25 10.125 5.125 0 8.75 0 10.5-1.75 1.75-1.875 1.75-5.625 1.75-10.5-5.375 0-8 .25-10 2.125zM0 12.625c0 5 0 8.75 1.75 10.5C3.625 25 7.25 25 12.375 25c-.125-5.5-.25-8.125-2.25-10.125C8.125 13 5.5 12.75 0 12.625zM12.375 0c-5.125 0-8.75 0-10.5 1.75C0 3.625 0 7.375 0 12.375c5.5-.125 8.125-.25 10.125-2.25C12 8.125 12.25 5.5 12.375 0zm2.5 10.125c-2-2-2.125-4.5-2.25-10.125 5.125 0 8.75 0 10.5 1.75C25 3.625 25 7.375 25 12.375c-5.5-.125-8.125-.375-10.125-2.25z" fill="#fff"/></g></symbol></svg>