<svg width="25" height="25" viewBox="0 0 25 25" fill="none" xmlns="http://www.w3.org/2000/svg">
<g clip-path="url(#clip0_101_57)">
<path d="M14.8749 14.875C12.8749 16.875 12.7499 19.375 12.6249 25C17.7499 25 21.3749 25 23.1249 23.25C24.8749 21.375 24.8749 17.625 24.8749 12.75C19.4999 12.75 16.8749 13 14.8749 14.875ZM-6.10352e-05 12.625C-6.10352e-05 17.625 -6.10352e-05 21.375 1.74994 23.125C3.62494 25 7.24993 25 12.3749 25C12.2499 19.5 12.1249 16.875 10.1249 14.875C8.12493 13 5.49993 12.75 -6.10352e-05 12.625ZM12.3749 0C7.24993 0 3.62494 0 1.87494 1.75C-6.10352e-05 3.625 -6.10352e-05 7.37499 -6.10352e-05 12.375C5.49993 12.25 8.12493 12.125 10.1249 10.125C11.9999 8.12499 12.2499 5.49999 12.3749 0ZM14.8749 10.125C12.8749 8.12499 12.7499 5.62499 12.6249 0C17.7499 0 21.3749 0 23.1249 1.75C24.9999 3.625 24.9999 7.37499 24.9999 12.375C19.4999 12.25 16.8749 12 14.8749 10.125Z" fill="white"/>
</g>
<defs>
<clipPath id="clip0_101_57">
<rect width="25" height="25" fill="white"/>
</clipPath>
</defs>
</svg>
