<svg width="22" height="19" viewBox="0 0 22 19" fill="none" xmlns="http://www.w3.org/2000/svg">
<path d="M20.6193 0H1.38071C0.613617 0 0 0.613616 0 1.3807C0 2.14779 0.613617 2.76141 1.38071 2.76141H20.6193C21.3864 2.76141 22 2.14779 22 1.3807C22 0.613616 21.3864 0 20.6193 0Z" fill="white"/>
<path d="M1.38071 10.4323H11.4142C12.1813 10.4323 12.7949 9.81869 12.7949 9.0516C12.7949 8.28452 12.1813 7.6709 11.4142 7.6709H1.38071C0.613617 7.6709 0 8.28452 0 9.0516C0 9.81869 0.613617 10.4323 1.38071 10.4323Z" fill="white"/>
<path d="M17.5509 15.6484H1.38071C0.613617 15.6484 0 16.2621 0 17.0291C0 17.7962 0.613617 18.4098 1.38071 18.4098H17.5509C18.318 18.4098 18.9316 17.7962 18.9316 17.0291C18.9316 16.2623 18.318 15.6484 17.5509 15.6484Z" fill="white"/>
</svg>
