<svg width="183" height="45" viewBox="0 0 183 45" fill="none" xmlns="http://www.w3.org/2000/svg">
<path fill-rule="evenodd" clip-rule="evenodd" d="M5.62658 0H39.3861C42.4895 0 45.0127 2.52246 45.0127 5.625V39.375C45.0127 42.4775 42.4895 45 39.3861 45H30.8759V41.8535C30.8759 38.9795 29.6891 36.2021 27.6231 34.2422L27.5967 34.2158L27.3417 33.9873C27.333 33.9785 27.3154 33.9609 27.2978 33.9521C26.5065 33.3545 26.0318 32.458 25.9791 31.4824V20.1094C25.9791 19.626 25.5834 19.2305 25.0999 19.2305H19.9832C19.4997 19.2305 19.1041 19.626 19.1041 20.1094V31.4736C19.0425 32.4492 18.559 33.3457 17.759 33.917C17.7238 33.9434 17.6886 33.9697 17.6535 34.0049L17.4073 34.251C15.3501 36.2373 14.1808 39.0322 14.2072 41.8975V45H5.62658C2.52317 45 0 42.4775 0 39.375V5.625C0 2.52246 2.52317 0 5.62658 0ZM24.2647 14.8975C23.2537 14.2031 21.8998 14.2207 20.9063 14.9414C20.7481 15.0557 20.5723 15.1084 20.3964 15.1172C20.1239 15.1172 19.8601 14.9853 19.6843 14.748C19.403 14.3525 19.4909 13.7988 19.8865 13.5176C21.4778 12.3662 23.6405 12.3398 25.2582 13.4473C25.6538 13.7197 25.7593 14.2646 25.4867 14.6689C25.2142 15.0645 24.6691 15.1699 24.2647 14.8975ZM26.8582 11.5137C24.2647 9.74707 20.8096 9.7998 18.2689 11.6367C18.1194 11.751 17.9348 11.8037 17.759 11.8037C17.4864 11.8037 17.2227 11.6807 17.0469 11.4434C16.7567 11.0478 16.8447 10.4941 17.2403 10.2129C20.3876 7.93652 24.6515 7.88379 27.8517 10.0635C28.2473 10.3359 28.3528 10.8809 28.0802 11.2852C27.8077 11.6807 27.2626 11.7861 26.8582 11.5137ZM16.2029 7.71679L15.5523 8.1914C15.394 8.30566 15.2182 8.3584 15.016 8.36718C14.7435 8.36718 14.4797 8.24414 14.3039 8.00683C14.0226 7.61133 14.1017 7.0664 14.4973 6.77636L15.227 6.24902C17.4425 4.86035 20.0008 4.12207 22.6207 4.12207H22.6822C25.3109 4.12207 27.878 4.86914 30.0935 6.28418L30.1287 6.31054L30.4803 6.55664C30.8759 6.83789 30.9727 7.38281 30.6913 7.77832C30.41 8.17383 29.8649 8.27051 29.4693 7.98926L29.1352 7.75195C27.2099 6.53027 24.9768 5.87988 22.691 5.87988H22.6383C20.3613 5.87988 18.137 6.51269 16.2029 7.71679Z" fill="white"/>
<path d="M15.9655 45H29.1088V41.8535C29.1088 39.4629 28.1242 37.1602 26.4186 35.5254L26.1988 35.332C25.0032 34.418 24.2735 33.0381 24.212 31.5352V20.9883H20.8536V31.5527C20.7745 33.0469 20.036 34.4092 18.8403 35.3057L18.6293 35.5166C16.915 37.1689 15.9391 39.498 15.9655 41.8975V45Z" fill="white"/>
<path d="M66.4951 24.1429L62.7158 11.8311H62.6191C62.7551 14.3357 62.8231 16.0066 62.8231 16.8438V24.1429H59.849V8.44997H64.38L68.0949 20.4504H68.1593L72.0998 8.44997H76.6307V24.1429H73.5278V16.715C73.5278 16.3644 73.5314 15.9601 73.5385 15.5021C73.5528 15.0441 73.6029 13.8276 73.6888 11.8526H73.5922L69.5444 24.1429H66.4951Z" fill="white"/>
<path d="M82.944 18.1212C82.944 19.309 83.1373 20.2071 83.5238 20.8154C83.9175 21.4236 84.5546 21.7277 85.435 21.7277C86.3082 21.7277 86.9345 21.4272 87.3139 20.8261C87.7004 20.2178 87.8937 19.3162 87.8937 18.1212C87.8937 16.9333 87.7004 16.0424 87.3139 15.4484C86.9274 14.8545 86.2939 14.5575 85.4135 14.5575C84.5402 14.5575 83.9103 14.8545 83.5238 15.4484C83.1373 16.0352 82.944 16.9261 82.944 18.1212ZM91.2436 18.1212C91.2436 20.0747 90.7282 21.6025 89.6975 22.7045C88.6668 23.8065 87.2316 24.3575 85.392 24.3575C84.2396 24.3575 83.2232 24.1071 82.3428 23.6062C81.4623 23.0981 80.7859 22.3718 80.3135 21.4272C79.8411 20.4826 79.6049 19.3806 79.6049 18.1212C79.6049 16.1605 80.1166 14.6362 81.1402 13.5485C82.1638 12.4609 83.6025 11.917 85.4564 11.917C86.6089 11.917 87.6253 12.1675 88.5057 12.6684C89.3861 13.1693 90.0626 13.8885 90.535 14.8259C91.0074 15.7633 91.2436 16.8617 91.2436 18.1212Z" fill="white"/>
<path d="M102.324 20.5792C102.324 21.81 101.895 22.7475 101.036 23.3915C100.184 24.0355 98.9062 24.3575 97.2026 24.3575C96.3293 24.3575 95.5849 24.2967 94.9693 24.1751C94.3537 24.0606 93.7775 23.8888 93.2407 23.6598V20.9549C93.8491 21.2411 94.5327 21.4809 95.2914 21.6741C96.0573 21.8673 96.7302 21.9639 97.3099 21.9639C98.4982 21.9639 99.0923 21.6204 99.0923 20.9334C99.0923 20.6758 99.0135 20.4683 98.8561 20.3109C98.6986 20.1463 98.4266 19.9638 98.0401 19.7634C97.6535 19.5559 97.1382 19.3162 96.4939 19.0443C95.5706 18.6579 94.8906 18.3001 94.4539 17.9709C94.0245 17.6417 93.7095 17.266 93.5091 16.8438C93.3158 16.4145 93.2192 15.8885 93.2192 15.266C93.2192 14.1997 93.6308 13.3768 94.4539 12.7972C95.2843 12.2104 96.4582 11.917 97.9756 11.917C99.4215 11.917 100.828 12.2319 102.195 12.8616L101.207 15.223C100.606 14.9654 100.044 14.7543 99.5217 14.5897C98.9992 14.4251 98.466 14.3429 97.922 14.3429C96.9556 14.3429 96.4725 14.604 96.4725 15.1264C96.4725 15.4198 96.6264 15.6739 96.9342 15.8885C97.2491 16.1032 97.9327 16.4216 98.9849 16.8438C99.9226 17.2231 100.61 17.5773 101.046 17.9065C101.483 18.2357 101.805 18.6149 102.013 19.0443C102.22 19.4736 102.324 19.9853 102.324 20.5792Z" fill="white"/>
<path d="M109.754 24.3575C106.018 24.3575 104.149 22.3074 104.149 18.207C104.149 16.1676 104.658 14.6112 105.674 13.5378C106.69 12.4573 108.147 11.917 110.044 11.917C111.433 11.917 112.678 12.1889 113.78 12.7328L112.814 15.266C112.299 15.0584 111.819 14.8903 111.375 14.7615C110.931 14.6255 110.488 14.5575 110.044 14.5575C108.34 14.5575 107.488 15.7669 107.488 18.1856C107.488 20.5327 108.34 21.7063 110.044 21.7063C110.674 21.7063 111.257 21.624 111.794 21.4594C112.331 21.2877 112.868 21.0229 113.405 20.6651V23.4666C112.875 23.8029 112.338 24.0355 111.794 24.1643C111.257 24.2931 110.577 24.3575 109.754 24.3575Z" fill="white"/>
<path d="M118.805 18.1212C118.805 19.309 118.998 20.2071 119.385 20.8154C119.779 21.4236 120.416 21.7277 121.296 21.7277C122.169 21.7277 122.796 21.4272 123.175 20.8261C123.562 20.2178 123.755 19.3162 123.755 18.1212C123.755 16.9333 123.562 16.0424 123.175 15.4484C122.789 14.8545 122.155 14.5575 121.275 14.5575C120.401 14.5575 119.771 14.8545 119.385 15.4484C118.998 16.0352 118.805 16.9261 118.805 18.1212ZM127.105 18.1212C127.105 20.0747 126.589 21.6025 125.559 22.7045C124.528 23.8065 123.093 24.3575 121.253 24.3575C120.101 24.3575 119.084 24.1071 118.204 23.6062C117.323 23.0981 116.647 22.3718 116.175 21.4272C115.702 20.4826 115.466 19.3806 115.466 18.1212C115.466 16.1605 115.978 14.6362 117.001 13.5485C118.025 12.4609 119.464 11.917 121.318 11.917C122.47 11.917 123.486 12.1675 124.367 12.6684C125.247 13.1693 125.924 13.8885 126.396 14.8259C126.869 15.7633 127.105 16.8617 127.105 18.1212Z" fill="white"/>
<path d="M145.357 24.1429H141.567L139.441 15.8993C139.363 15.6059 139.227 15.0012 139.033 14.0852C138.847 13.1621 138.74 12.5431 138.711 12.2283C138.668 12.6147 138.561 13.2373 138.389 14.096C138.217 14.9475 138.085 15.5558 137.992 15.9207L135.877 24.1429H132.097L128.093 8.44997H131.367L133.375 17.0156C133.726 18.597 133.98 19.9674 134.137 21.1266C134.18 20.7188 134.277 20.089 134.427 19.2375C134.585 18.3788 134.732 17.7133 134.868 17.241L137.154 8.44997H140.3L142.587 17.241C142.688 17.6346 142.813 18.2357 142.963 19.0443C143.113 19.8529 143.228 20.547 143.307 21.1266C143.378 20.5685 143.493 19.8744 143.65 19.0443C143.808 18.207 143.951 17.5308 144.08 17.0156L146.077 8.44997H149.352L145.357 24.1429Z" fill="white"/>
<path d="M150.93 9.04033C150.93 7.9741 151.524 7.44099 152.712 7.44099C153.9 7.44099 154.495 7.9741 154.495 9.04033C154.495 9.5484 154.344 9.94556 154.044 10.2318C153.75 10.5109 153.306 10.6504 152.712 10.6504C151.524 10.6504 150.93 10.1137 150.93 9.04033ZM154.344 24.1429H151.069V12.1424H154.344V24.1429Z" fill="white"/>
<path d="M168.871 24.1429H165.596V17.1337C165.596 16.2678 165.443 15.6202 165.135 15.1908C164.827 14.7543 164.337 14.5361 163.664 14.5361C162.748 14.5361 162.085 14.8438 161.677 15.4592C161.269 16.0674 161.065 17.08 161.065 18.4969V24.1429H157.791V12.1424H160.292L160.733 13.6774H160.915C161.28 13.0977 161.781 12.6612 162.418 12.3678C163.063 12.0673 163.793 11.917 164.609 11.917C166.004 11.917 167.064 12.2963 167.787 13.0548C168.51 13.8062 168.871 14.8939 168.871 16.3179V24.1429Z" fill="white"/>
<path d="M177.214 14.2463C176.519 14.2463 175.975 14.4681 175.582 14.9117C175.188 15.3483 174.963 15.9708 174.905 16.7794H179.501C179.486 15.9708 179.275 15.3483 178.867 14.9117C178.459 14.4681 177.908 14.2463 177.214 14.2463ZM177.675 24.3575C175.743 24.3575 174.232 23.8244 173.144 22.7582C172.056 21.692 171.512 20.1821 171.512 18.2285C171.512 16.2177 172.014 14.6649 173.016 13.57C174.025 12.468 175.417 11.917 177.192 11.917C178.889 11.917 180.209 12.4 181.154 13.3661C182.099 14.3321 182.571 15.6667 182.571 17.3698V18.9584H174.83C174.866 19.8887 175.142 20.615 175.657 21.1374C176.172 21.6598 176.895 21.9209 177.826 21.9209C178.549 21.9209 179.232 21.8458 179.876 21.6955C180.521 21.5453 181.194 21.3055 181.895 20.9764V23.5096C181.322 23.7958 180.71 24.0069 180.059 24.1429C179.408 24.286 178.613 24.3575 177.675 24.3575Z" fill="white"/>
<path d="M66.8364 40.1429V36.6641C66.8364 36.238 66.7453 35.9193 66.5631 35.7078C66.3809 35.4931 66.0978 35.3858 65.7139 35.3858C65.2096 35.3858 64.837 35.5306 64.5963 35.82C64.3555 36.1095 64.2351 36.5551 64.2351 37.1569V40.1429H63.425V36.6641C63.425 36.238 63.3339 35.9193 63.1517 35.7078C62.9695 35.4931 62.6848 35.3858 62.2976 35.3858C61.79 35.3858 61.4175 35.5387 61.18 35.8444C60.9457 36.1469 60.8286 36.6446 60.8286 37.3374V40.1429H60.0185V34.7955H60.6773L60.8091 35.5273H60.8481C61.001 35.2671 61.2158 35.0638 61.4923 34.9174C61.7721 34.7711 62.0845 34.6979 62.4294 34.6979C63.2655 34.6979 63.8121 35.0004 64.0692 35.6054H64.1082C64.2677 35.3256 64.4987 35.1045 64.8012 34.9418C65.1038 34.7792 65.4487 34.6979 65.8359 34.6979C66.4411 34.6979 66.8933 34.854 67.1926 35.1663C67.4952 35.4753 67.6465 35.9713 67.6465 36.6544V40.1429H66.8364Z" fill="white"/>
<path d="M72.6099 40.1429L72.4488 39.3817H72.4098C72.143 39.7168 71.8762 39.9444 71.6094 40.0648C71.3458 40.1819 71.0156 40.2404 70.6187 40.2404C70.0883 40.2404 69.6719 40.1038 69.3693 39.8306C69.07 39.5574 68.9203 39.1687 68.9203 38.6645C68.9203 37.5846 69.7841 37.0187 71.5118 36.9666L72.4195 36.9373V36.6056C72.4195 36.186 72.3284 35.877 72.1462 35.6786C71.9673 35.4769 71.6793 35.3761 71.2824 35.3761C70.8367 35.3761 70.3324 35.5127 69.7695 35.7859L69.5206 35.1663C69.7841 35.0231 70.0721 34.9109 70.3844 34.8296C70.7 34.7483 71.0156 34.7076 71.3312 34.7076C71.9689 34.7076 72.4407 34.8491 72.7465 35.1321C73.0556 35.4151 73.2102 35.8688 73.2102 36.4933V40.1429H72.6099ZM70.7797 39.572C71.284 39.572 71.6793 39.4338 71.9657 39.1573C72.2552 38.8808 72.4 38.4938 72.4 37.9961V37.5131L71.5899 37.5472C70.9457 37.57 70.4804 37.6708 70.1941 37.8497C69.911 38.0254 69.7695 38.3002 69.7695 38.6743C69.7695 38.967 69.8573 39.1898 70.033 39.3427C70.212 39.4956 70.4609 39.572 70.7797 39.572Z" fill="white"/>
<path d="M77.3243 34.6979C77.5618 34.6979 77.775 34.7174 77.9637 34.7564L77.8514 35.5078C77.6302 35.459 77.435 35.4346 77.2658 35.4346C76.833 35.4346 76.4621 35.6102 76.153 35.9615C75.8472 36.3128 75.6943 36.7503 75.6943 37.274V40.1429H74.8841V34.7955H75.5527L75.6455 35.7859H75.6845C75.883 35.4379 76.1221 35.1695 76.4019 34.9809C76.6817 34.7922 76.9892 34.6979 77.3243 34.6979Z" fill="white"/>
<path d="M79.7645 37.4057C79.9044 37.2073 80.1175 36.9471 80.4039 36.6251L82.1315 34.7955H83.093L80.9261 37.074L83.2443 40.1429H82.2633L80.3746 37.6155L79.7645 38.1425V40.1429H78.9641V32.5511H79.7645V36.5763C79.7645 36.7552 79.7515 37.0317 79.7255 37.4057H79.7645Z" fill="white"/>
<path d="M86.4751 40.2404C85.6844 40.2404 85.0598 39.9997 84.601 39.5183C84.1455 39.0369 83.9177 38.3685 83.9177 37.5131C83.9177 36.6511 84.1292 35.9664 84.5522 35.459C84.9784 34.9516 85.5494 34.6979 86.2652 34.6979C86.9355 34.6979 87.4658 34.9191 87.8562 35.3614C88.2467 35.8005 88.4419 36.3811 88.4419 37.1032V37.6155H84.7572C84.7734 38.2433 84.9312 38.7198 85.2306 39.0451C85.5331 39.3703 85.9578 39.533 86.5044 39.533C87.0803 39.533 87.6496 39.4126 88.2125 39.1719V39.894C87.9262 40.0176 87.6545 40.1054 87.3975 40.1575C87.1437 40.2128 86.8362 40.2404 86.4751 40.2404ZM86.2555 35.3761C85.826 35.3761 85.4827 35.5159 85.2257 35.7956C84.9719 36.0754 84.8222 36.4624 84.7767 36.9569H87.5732C87.5732 36.4462 87.4593 36.0559 87.2315 35.7859C87.0038 35.5127 86.6784 35.3761 86.2555 35.3761Z" fill="white"/>
<path d="M91.5556 39.572C91.6987 39.572 91.837 39.5623 91.9704 39.5427C92.1038 39.52 92.2095 39.4972 92.2876 39.4744V40.0941C92.1998 40.1364 92.0696 40.1705 91.8972 40.1965C91.728 40.2258 91.5751 40.2404 91.4384 40.2404C90.4038 40.2404 89.8865 39.6956 89.8865 38.606V35.4248H89.1202V35.0345L89.8865 34.6979L90.2281 33.5562H90.6966V34.7955H92.2486V35.4248H90.6966V38.5718C90.6966 38.8938 90.7731 39.141 90.926 39.3134C91.0789 39.4858 91.2888 39.572 91.5556 39.572Z" fill="white"/>
<path d="M95.8503 40.2404C95.5022 40.2404 95.1833 40.177 94.8938 40.0502C94.6074 39.92 94.3667 39.7216 94.1715 39.4549H94.1129C94.1519 39.7672 94.1715 40.0632 94.1715 40.3429V42.5433H93.3613V34.7955H94.0202L94.1324 35.5273H94.1715C94.3797 35.2346 94.6221 35.0231 94.8986 34.893C95.1752 34.7629 95.4924 34.6979 95.8503 34.6979C96.5596 34.6979 97.1062 34.9402 97.4901 35.4248C97.8773 35.9095 98.0709 36.5893 98.0709 37.4643C98.0709 38.3425 97.8741 39.0256 97.4804 39.5135C97.0899 39.9981 96.5466 40.2404 95.8503 40.2404ZM95.7332 35.3858C95.1866 35.3858 94.7913 35.5371 94.5472 35.8396C94.3032 36.1421 94.178 36.6235 94.1715 37.2838V37.4643C94.1715 38.2156 94.2967 38.754 94.5472 39.0792C94.7978 39.4012 95.1996 39.5623 95.7527 39.5623C96.2147 39.5623 96.5759 39.3752 96.8362 39.0012C97.0997 38.6271 97.2315 38.1116 97.2315 37.4545C97.2315 36.7877 97.0997 36.277 96.8362 35.9225C96.5759 35.5647 96.2082 35.3858 95.7332 35.3858Z" fill="white"/>
<path d="M100.301 40.1429H99.4911V32.5511H100.301V40.1429Z" fill="white"/>
<path d="M105.309 40.1429L105.147 39.3817H105.108C104.842 39.7168 104.575 39.9444 104.308 40.0648C104.044 40.1819 103.714 40.2404 103.317 40.2404C102.787 40.2404 102.371 40.1038 102.068 39.8306C101.769 39.5574 101.619 39.1687 101.619 38.6645C101.619 37.5846 102.483 37.0187 104.21 36.9666L105.118 36.9373V36.6056C105.118 36.186 105.027 35.877 104.845 35.6786C104.666 35.4769 104.378 35.3761 103.981 35.3761C103.535 35.3761 103.031 35.5127 102.468 35.7859L102.219 35.1663C102.483 35.0231 102.771 34.9109 103.083 34.8296C103.399 34.7483 103.714 34.7076 104.03 34.7076C104.668 34.7076 105.139 34.8491 105.445 35.1321C105.754 35.4151 105.909 35.8688 105.909 36.4933V40.1429H105.309ZM103.478 39.572C103.983 39.572 104.378 39.4338 104.664 39.1573C104.954 38.8808 105.099 38.4938 105.099 37.9961V37.5131L104.289 37.5472C103.644 37.57 103.179 37.6708 102.893 37.8497C102.61 38.0254 102.468 38.3002 102.468 38.6743C102.468 38.967 102.556 39.1898 102.732 39.3427C102.911 39.4956 103.16 39.572 103.478 39.572Z" fill="white"/>
<path d="M109.72 40.2404C108.946 40.2404 108.346 40.003 107.92 39.5281C107.497 39.05 107.285 38.375 107.285 37.5033C107.285 36.6088 107.5 35.9176 107.929 35.4297C108.362 34.9418 108.977 34.6979 109.774 34.6979C110.031 34.6979 110.288 34.7255 110.545 34.7808C110.802 34.8361 111.004 34.9012 111.15 34.976L110.901 35.6639C110.723 35.5924 110.527 35.5338 110.316 35.4883C110.104 35.4395 109.917 35.4151 109.755 35.4151C108.668 35.4151 108.125 36.1079 108.125 37.4935C108.125 38.1506 108.256 38.6548 108.52 39.006C108.787 39.3573 109.18 39.533 109.701 39.533C110.147 39.533 110.604 39.437 111.072 39.2451V39.9623C110.714 40.1477 110.264 40.2404 109.72 40.2404Z" fill="white"/>
<path d="M114.606 40.2404C113.815 40.2404 113.19 39.9997 112.732 39.5183C112.276 39.0369 112.048 38.3685 112.048 37.5131C112.048 36.6511 112.26 35.9664 112.683 35.459C113.109 34.9516 113.68 34.6979 114.396 34.6979C115.066 34.6979 115.596 34.9191 115.987 35.3614C116.377 35.8005 116.572 36.3811 116.572 37.1032V37.6155H112.888C112.904 38.2433 113.062 38.7198 113.361 39.0451C113.664 39.3703 114.088 39.533 114.635 39.533C115.211 39.533 115.78 39.4126 116.343 39.1719V39.894C116.057 40.0176 115.785 40.1054 115.528 40.1575C115.274 40.2128 114.967 40.2404 114.606 40.2404ZM114.386 35.3761C113.957 35.3761 113.613 35.5159 113.356 35.7956C113.103 36.0754 112.953 36.4624 112.907 36.9569H115.704C115.704 36.4462 115.59 36.0559 115.362 35.7859C115.134 35.5127 114.809 35.3761 114.386 35.3761Z" fill="white"/>
</svg>
