<svg width="24" height="25" viewBox="0 0 24 25" fill="none" xmlns="http://www.w3.org/2000/svg">
<g clip-path="url(#clip0_101_53)">
<path d="M23.9776 7.35006C23.922 6.02171 23.7179 5.10849 23.4256 4.31717C23.124 3.4772 22.66 2.72518 22.0522 2.10002C21.4583 1.46513 20.7391 0.971792 19.9504 0.659308C19.1943 0.351593 18.3313 0.136783 17.0694 0.0782165C15.798 0.0146894 15.3944 0 12.1699 0C8.9454 0 8.54179 0.0146894 7.27515 0.0732564C6.01323 0.131823 5.14566 0.346823 4.39409 0.654348C3.59594 0.971792 2.88152 1.46017 2.28762 2.10002C1.68447 2.72518 1.21599 3.48216 0.918944 4.3124C0.626615 5.10849 0.422547 6.01676 0.366908 7.3451C0.306557 8.68336 0.292603 9.10821 0.292603 12.5024C0.292603 15.8966 0.306557 16.3215 0.362196 17.6548C0.417835 18.9831 0.622084 19.8964 0.914413 20.6877C1.21599 21.5277 1.68447 22.2797 2.28762 22.9048C2.88152 23.5397 3.60065 24.0331 4.38938 24.3455C5.14566 24.6533 6.00851 24.8681 7.27062 24.9266C8.53708 24.9854 8.94087 24.9999 12.1654 24.9999C15.3899 24.9999 15.7935 24.9854 17.0601 24.9266C18.322 24.8681 19.1896 24.6533 19.9412 24.3455C21.5373 23.696 22.7992 22.3676 23.4163 20.6877C23.7085 19.8916 23.9127 18.9831 23.9684 17.6548C24.024 16.3215 24.0379 15.8966 24.0379 12.5024C24.0379 9.10821 24.0332 8.68336 23.9776 7.35006ZM21.8389 17.5571C21.7878 18.7781 21.5929 19.4374 21.4305 19.8769C21.0315 20.966 20.2103 21.8304 19.1756 22.2505C18.7581 22.4214 18.1272 22.6265 16.9719 22.6801C15.7192 22.7389 15.3435 22.7534 12.1746 22.7534C9.00575 22.7534 8.62534 22.7389 7.37719 22.6801C6.21729 22.6265 5.59095 22.4214 5.17339 22.2505C4.65851 22.0502 4.18984 21.7327 3.80943 21.3176C3.41507 20.9122 3.1135 20.4238 2.9232 19.8819C2.76082 19.4423 2.56599 18.7781 2.51506 17.5621C2.45924 16.2435 2.44547 15.8478 2.44547 12.5122C2.44547 9.17651 2.45924 8.77608 2.51506 7.46242C2.56599 6.24148 2.76082 5.58218 2.9232 5.14264C3.1135 4.60046 3.41507 4.10732 3.81414 3.7067C4.19908 3.29158 4.66304 2.97413 5.1781 2.77401C5.59567 2.60308 6.22672 2.398 7.3819 2.34421C8.63458 2.28564 9.01046 2.27095 12.1791 2.27095C15.3527 2.27095 15.7284 2.28564 16.9766 2.34421C18.1365 2.398 18.7628 2.60308 19.1804 2.77401C19.6952 2.97413 20.1639 3.29158 20.5443 3.7067C20.9387 4.11209 21.2403 4.60046 21.4305 5.14264C21.5929 5.58218 21.7878 6.24625 21.8389 7.46242C21.8945 8.78104 21.9085 9.17651 21.9085 12.5122C21.9085 15.8478 21.8945 16.2385 21.8389 17.5571Z" fill="white"/>
<path d="M12.1692 6.08008C8.80093 6.08008 6.06812 8.95654 6.06812 12.5022C6.06812 16.0479 8.80093 18.9244 12.1692 18.9244C15.5376 18.9244 18.2702 16.0479 18.2702 12.5022C18.2702 8.95654 15.5376 6.08008 12.1692 6.08008ZM12.1692 16.6681C9.98402 16.6681 8.21156 14.8026 8.21156 12.5022C8.21156 10.2019 9.98402 8.33634 12.1692 8.33634C14.3545 8.33634 16.1267 10.2019 16.1267 12.5022C16.1267 14.8026 14.3545 16.6681 12.1692 16.6681V16.6681Z" fill="white"/>
<path d="M19.9359 5.82643C19.9359 6.65438 19.2982 7.32571 18.5114 7.32571C17.7249 7.32571 17.0871 6.65438 17.0871 5.82643C17.0871 4.99829 17.7249 4.32715 18.5114 4.32715C19.2982 4.32715 19.9359 4.99829 19.9359 5.82643V5.82643Z" fill="white"/>
</g>
<defs>
<clipPath id="clip0_101_53">
<rect width="23.75" height="25" fill="white" transform="translate(0.250122)"/>
</clipPath>
</defs>
</svg>
