<svg width="60" height="60" viewBox="0 0 60 60" fill="none" xmlns="http://www.w3.org/2000/svg">
<path opacity="0.7" fill-rule="evenodd" clip-rule="evenodd" d="M0 60H60V0H0V60ZM29 36C29 36.5523 29.4477 37 30 37C30.5523 37 31 36.5523 31 36V26.4142L35.2929 30.7071C35.6834 31.0976 36.3166 31.0976 36.7071 30.7071C37.0976 30.3166 37.0976 29.6834 36.7071 29.2929L30.7071 23.2929C30.3166 22.9024 29.6834 22.9024 29.2929 23.2929L23.2929 29.2929C22.9024 29.6834 22.9024 30.3166 23.2929 30.7071C23.6834 31.0976 24.3166 31.0976 24.7071 30.7071L29 26.4142V36Z" fill="white"/>
</svg>
